<?xml version="1.0" encoding="UTF-8" standalone="no"?>
<svg width="20px" height="27px" viewBox="0 0 20 27" version="1.1" xmlns="http://www.w3.org/2000/svg" xmlns:xlink="http://www.w3.org/1999/xlink" xmlns:sketch="http://www.bohemiancoding.com/sketch/ns">
    <!-- Generator: Sketch 3.4.4 (17249) - http://www.bohemiancoding.com/sketch -->
    <title>jpegIcon</title>
    <desc>Created with Sketch.</desc>
    <defs>
        <path id="path-1" d="M0,0.266 L19.948,0.266 L19.948,27 L0,27"></path>
        <path id="path-3" d="M0,0.266 L19.948,0.266 L19.948,27 L0,27 L0,0.266 Z"></path>
    </defs>
    <g id="Page-1" stroke="none" stroke-width="1" fill="none" fill-rule="evenodd" sketch:type="MSPage">
        <g id="My-Workout---Hover" sketch:type="MSArtboardGroup" transform="translate(-844.000000, -323.000000)">
            <g id="Print-Popup---Hover-state" sketch:type="MSLayerGroup" transform="translate(800.000000, 210.000000)">
                <g id="jpegIcon" transform="translate(44.000000, 113.000000)">
                    <g id="Group-3">
                        <mask id="mask-2" sketch:name="Clip 2" fill="white">
                            <use xlink:href="#path-1"></use>
                        </mask>
                        <g id="Clip-2"></g>
                        <path d="M18.88245,27 L1.12245,27 C0.53645,27 0.05695,26.5205 0.05695,25.934 L0.05695,1.3325 C0.05695,0.746 0.53645,0.2665 1.12245,0.2665 L15.13545,0.2665 L19.69895,4.829 L19.94845,25.934 C19.94845,26.5205 19.46845,27 18.88245,27" id="Fill-1" sketch:type="MSShapeGroup" mask="url(#mask-2)"></path>
                    </g>
                    <g id="Group-6">
                        <mask id="mask-4" sketch:name="Clip 5" fill="white">
                            <use xlink:href="#path-3"></use>
                        </mask>
                        <g id="Clip-5"></g>
                        <path d="M18.738,26.50025 L1.148,26.50025 C0.791,26.50025 0.5,26.20325 0.5,25.83825 L0.5,1.43475 C0.5,1.06625 0.791,0.76625 1.148,0.76625 L14.8285,0.76625 L14.8285,5.07825 C14.8285,5.21625 14.9405,5.32825 15.0785,5.32825 L19.391,5.32825 L19.391,25.83825 C19.391,26.20325 19.098,26.50025 18.738,26.50025 L18.738,26.50025 Z M19.196,4.69025 C19.248,4.74125 19.2835,4.78525 19.3125,4.82825 L15.3285,4.82825 L15.3285,0.87675 C15.355,0.90025 15.383,0.92725 15.4185,0.96175 L19.196,4.69025 Z M19.5475,4.33425 L15.7695,0.60525 C15.5995,0.43825 15.4245,0.26575 15.0785,0.26575 L1.148,0.26575 C0.515,0.26575 0,0.78975 0,1.43425 L0,25.83725 C0,26.47775 0.515,26.99925 1.148,26.99925 L18.738,26.99925 C19.3735,26.99925 19.8915,26.47775 19.8915,25.83725 L19.8915,5.07725 C19.891,4.72225 19.7175,4.50275 19.5475,4.33425 L19.5475,4.33425 Z" id="Fill-4" fill="#369AD8" sketch:type="MSShapeGroup" mask="url(#mask-4)"></path>
                    </g>
                    <path d="M16.848,19.66475 L6.165,19.66475 L10.2445,14.38775 L11.888,16.48825 C11.937,16.55175 12.0025,16.58475 12.094,16.58425 C12.1735,16.58125 12.248,16.54025 12.292,16.47325 L14.4625,13.24225 L17.1095,16.84725 L17.1095,19.42775 C17.1095,19.55875 16.992,19.66475 16.848,19.66475 M2.8695,19.42825 L2.8695,10.13875 C2.8695,10.00975 2.9875,9.90525 3.132,9.90525 L16.848,9.90525 C16.992,9.90525 17.109,10.00975 17.109,10.13875 L17.109,16.00275 L14.6545,12.65925 C14.6055,12.59325 14.5235,12.55325 14.4475,12.55725 C14.3665,12.55875 14.291,12.60025 14.2455,12.66775 L12.069,15.90925 L10.4405,13.82625 C10.393,13.76575 10.3205,13.73025 10.2435,13.73025 L10.243,13.73025 C10.166,13.73025 10.093,13.76625 10.046,13.82725 L5.534,19.66425 L3.133,19.66425 C2.9875,19.66475 2.8695,19.55875 2.8695,19.42825 M16.848,9.40525 L3.132,9.40525 C2.7115,9.40525 2.3695,9.73425 2.3695,10.13875 L2.3695,19.42825 C2.3695,19.83425 2.7115,20.16475 3.132,20.16475 L16.848,20.16475 C17.268,20.16475 17.609,19.83475 17.609,19.42825 L17.609,10.13875 C17.6095,9.73425 17.268,9.40525 16.848,9.40525" id="Fill-7" fill="#369AD8" sketch:type="MSShapeGroup"></path>
                    <path d="M6.326,12.42525 C6.946,12.42525 7.451,12.89775 7.451,13.47825 C7.451,14.05775 6.9465,14.52975 6.326,14.52975 C5.706,14.52975 5.202,14.05825 5.202,13.47825 C5.202,12.89775 5.7065,12.42525 6.326,12.42525 M6.326,15.02925 C7.222,15.02925 7.951,14.33325 7.951,13.47775 C7.951,12.62175 7.222,11.92475 6.326,11.92475 C5.4305,11.92475 4.702,12.62175 4.702,13.47775 C4.702,14.33375 5.4305,15.02925 6.326,15.02925" id="Fill-9" fill="#369AD8" sketch:type="MSShapeGroup"></path>
                </g>
            </g>
        </g>
    </g>
</svg>