<?xml version="1.0" encoding="UTF-8" standalone="no"?>
<svg width="20px" height="27px" viewBox="0 0 20 27" version="1.1" xmlns="http://www.w3.org/2000/svg" xmlns:xlink="http://www.w3.org/1999/xlink" xmlns:sketch="http://www.bohemiancoding.com/sketch/ns">
    <!-- Generator: Sketch 3.4.4 (17249) - http://www.bohemiancoding.com/sketch -->
    <title>PdfIcon</title>
    <desc>Created with Sketch.</desc>
    <defs></defs>
    <g id="Page-1" stroke="none" stroke-width="1" fill="none" fill-rule="evenodd" sketch:type="MSPage">
        <g id="My-Workout---Hover" sketch:type="MSArtboardGroup" transform="translate(-808.000000, -278.000000)" fill="#369AD8">
            <g id="Print-Popup---Hover-state" sketch:type="MSLayerGroup" transform="translate(797.000000, 210.000000)">
                <g id="PdfIcon" transform="translate(11.000000, 68.000000)" sketch:type="MSShapeGroup">
                    <path d="M18.738,26.501 L1.148,26.501 C0.791,26.501 0.5,26.204 0.5,25.839 L0.5,1.4355 C0.5,1.067 0.791,0.767 1.148,0.767 L14.8285,0.767 L14.8285,5.079 C14.8285,5.217 14.9405,5.329 15.0785,5.329 L19.391,5.329 L19.391,25.839 C19.391,26.204 19.098,26.501 18.738,26.501 L18.738,26.501 Z M19.196,4.691 C19.248,4.742 19.2835,4.786 19.3125,4.829 L15.3285,4.829 L15.3285,0.8775 C15.355,0.901 15.383,0.928 15.4185,0.9625 L19.196,4.691 Z M19.5475,4.335 L15.7695,0.606 C15.5995,0.439 15.4245,0.2665 15.0785,0.2665 L1.148,0.2665 C0.515,0.2665 0,0.7905 0,1.435 L0,25.838 C0,26.4785 0.515,27 1.148,27 L18.738,27 C19.3735,27 19.8915,26.4785 19.8915,25.838 L19.8915,5.078 C19.891,4.723 19.7175,4.5035 19.5475,4.335 L19.5475,4.335 Z" id="Fill-1"></path>
                    <path d="M16.1469,17.2 C16.1029,16.566 15.0359,16.1595 15.0254,16.1555 C14.6129,16.0095 14.1649,15.9385 13.6554,15.9385 C13.1104,15.9385 12.5229,16.0175 11.7679,16.194 C11.0964,15.7175 10.5159,15.1215 10.0829,14.4615 C9.8914,14.17 9.7194,13.879 9.5694,13.595 C9.9354,12.7195 10.2649,11.778 10.2054,10.7235 C10.1569,9.878 9.7759,9.31 9.2574,9.31 C8.9019,9.31 8.5954,9.5735 8.3464,10.094 C7.9024,11.021 8.0189,12.207 8.6934,13.6225 C8.4504,14.1925 8.2249,14.784 8.0064,15.3565 C7.7344,16.0685 7.4544,16.803 7.1389,17.5015 C6.2539,17.8515 5.5269,18.276 4.9214,18.7975 C4.5244,19.1385 4.0459,19.6595 4.0184,20.2035 C4.0054,20.46 4.0929,20.695 4.2714,20.883 C4.4609,21.083 4.6994,21.1885 4.9614,21.1885 C5.8269,21.1885 6.6599,19.9995 6.8179,19.761 C7.1359,19.282 7.4334,18.747 7.7249,18.1305 C8.4594,17.865 9.2424,17.667 10.0009,17.4755 L10.2729,17.406 C10.4769,17.3545 10.6894,17.297 10.9069,17.2375 C11.1374,17.175 11.3744,17.1105 11.6154,17.049 C12.3944,17.5445 13.2324,17.868 14.0494,17.9865 C14.7374,18.0865 15.3489,18.0285 15.7624,17.8125 C16.1349,17.619 16.1559,17.3195 16.1469,17.2 M6.5724,18.6355 C6.4364,18.879 6.2979,19.107 6.1554,19.322 C5.8119,19.8395 5.2504,20.3935 4.9619,20.3935 C4.9334,20.3935 4.8989,20.389 4.8489,20.336 C4.8164,20.302 4.8114,20.2775 4.8129,20.2445 C4.8224,20.0545 5.0744,19.7155 5.4399,19.401 C5.7714,19.116 6.1459,18.863 6.5724,18.6355 M9.4114,10.769 C9.4464,11.39 9.3124,11.9875 9.1159,12.5605 C8.8739,11.852 8.7609,11.0695 9.0639,10.4375 C9.1414,10.2755 9.2049,10.189 9.2464,10.144 C9.3099,10.2425 9.3939,10.4625 9.4114,10.769 M10.7944,16.4445 C10.7619,16.453 10.7304,16.4615 10.6989,16.47 C10.4849,16.5285 10.2769,16.585 10.0764,16.6355 L9.8059,16.7045 C9.2624,16.842 8.7064,16.9825 8.1574,17.15 C8.3659,16.6465 8.5599,16.138 8.7494,15.6405 C8.8904,15.272 9.0339,14.896 9.1819,14.5245 C9.2574,14.649 9.3359,14.773 9.4179,14.898 C9.7904,15.4655 10.2584,15.99 10.7944,16.4445 M15.2279,17.173 C14.9649,17.251 14.5784,17.2595 14.1644,17.1995 C13.7199,17.135 13.2664,16.999 12.8209,16.799 C13.6154,16.6835 14.2319,16.719 14.7594,16.906 C14.8844,16.95 15.0894,17.0685 15.2279,17.173" id="Fill-3"></path>
                </g>
            </g>
        </g>
    </g>
</svg>