<svg width="20" height="27" viewBox="0 0 20 27" xmlns="http://www.w3.org/2000/svg" xmlns:xlink="http://www.w3.org/1999/xlink">
    <title>
        Jpeg Icon hover
    </title>
    <defs>
        <path id="a" d="M0 .266h19.948V27H0"/>
        <path id="c" d="M0 .266h19.948V27H0V.266z"/>
    </defs>
    <g fill="none" fill-rule="evenodd">
        <mask id="b" fill="#fff">
            <use xlink:href="#a"/>
        </mask>
        <path d="M18.882 27H1.122a1.07 1.07 0 0 1-1.065-1.066V1.332C.057.746.537.266 1.122.266h14.013L19.7 4.83l.248 21.104A1.07 1.07 0 0 1 18.882 27" fill="#FFF" mask="url(#b)"/>
        <mask id="d" fill="#fff">
            <use xlink:href="#c"/>
        </mask>
        <path d="M18.738 26.5H1.148a.656.656 0 0 1-.648-.662V1.435c0-.37.29-.67.648-.67h13.68V5.08c0 .138.113.25.25.25h4.313v20.51a.658.658 0 0 1-.65.662zm.458-21.81c.052.05.087.095.116.138h-3.984V.878c.027.022.055.05.09.084l3.778 3.728zm.35-.356L15.77.604c-.17-.166-.344-.338-.69-.338H1.147A1.16 1.16 0 0 0 0 1.434v24.403C0 26.477.515 27 1.148 27h17.59a1.16 1.16 0 0 0 1.154-1.163V5.077c0-.355-.174-.574-.345-.743z" fill="#369AD8" mask="url(#d)"/>
        <path d="M16.848 19.665H6.165l4.08-5.277 1.643 2.1a.24.24 0 0 0 .206.096.248.248 0 0 0 .198-.11l2.17-3.232 2.648 3.605v2.58c0 .132-.118.238-.262.238M2.87 19.428v-9.29c0-.128.117-.233.262-.233h13.716c.144 0 .26.105.26.234V16l-2.454-3.344a.25.25 0 0 0-.41.008l-2.175 3.24-1.63-2.082a.25.25 0 0 0-.396 0l-4.51 5.838H3.132c-.146 0-.264-.105-.264-.236m13.98-10.02H3.132c-.42 0-.763.33-.763.733v9.287a.75.75 0 0 0 .76.737h13.717c.42 0 .76-.33.76-.737v-9.29c.002-.404-.34-.733-.76-.733" fill="#369AD8"/>
        <path d="M6.326 12.425c.62 0 1.125.473 1.125 1.053S6.95 14.53 6.328 14.53c-.62 0-1.124-.472-1.124-1.052 0-.58.505-1.053 1.124-1.053m0 2.604c.896 0 1.625-.698 1.625-1.553 0-.856-.728-1.553-1.624-1.553-.895 0-1.624.697-1.624 1.553s.73 1.55 1.624 1.55" fill="#369AD8"/>
    </g>
</svg>
