<?xml version="1.0" encoding="UTF-8"?>
<svg width="28px" height="27px" viewBox="0 0 28 27" version="1.1" xmlns="http://www.w3.org/2000/svg" xmlns:xlink="http://www.w3.org/1999/xlink">
    <!-- Generator: Sketch 41.1 (35376) - http://www.bohemiancoding.com/sketch -->
    <title>archive</title>
    <desc>Created with Sketch.</desc>
    <defs></defs>
    <g id="Workouts-/-Create-/-View" stroke="none" stroke-width="1" fill="none" fill-rule="evenodd">
        <g id="My-Workout---Print-Popup" transform="translate(-527.000000, -410.000000)" fill="#FFFFFF">
            <g id="archive" transform="translate(527.000000, 410.500000)">
                <path d="M25.4631406,7.62026984 L2.1620625,7.62026984 C1.87504687,7.62026984 1.62682812,7.72674603 1.41720312,7.93969841 C1.20757812,8.15265079 1.10276562,8.40480952 1.10276562,8.6961746 L1.10276562,24.8355714 C1.10276562,25.1269365 1.20757812,25.3793016 1.41720312,25.5920476 C1.62682812,25.805 1.87504687,25.9116825 2.1620625,25.9116825 L25.4631406,25.9116825 C25.7499531,25.9116825 25.9981719,25.805 26.2077969,25.5920476 C26.4172187,25.3793016 26.5220312,25.1269365 26.5220312,24.8355714 L26.5220312,8.6961746 C26.5220312,8.40460317 26.417625,8.15265079 26.2077969,7.93969841 C25.998375,7.72674603 25.7501562,7.62026984 25.4631406,7.62026984 L25.4631406,7.62026984 Z M16.6753437,12.6805714 C16.4657187,12.8935238 16.2175,13 15.9306875,13 L11.6941094,13 C11.4072969,13 11.1590781,12.8935238 10.9494531,12.6805714 C10.7398281,12.467619 10.6350156,12.2154603 10.6350156,11.9238889 C10.6350156,11.6325238 10.7398281,11.3803651 10.9494531,11.1674127 C11.1590781,10.9544603 11.4072969,10.8479841 11.6941094,10.8479841 L15.9310937,10.8479841 C16.2177031,10.8479841 16.4659219,10.9544603 16.67575,11.1674127 C16.8851719,11.3803651 16.9899844,11.6325238 16.9899844,11.9238889 C16.9899844,12.2154603 16.8849687,12.467619 16.6753437,12.6805714 L16.6753437,12.6805714 Z" id="Shape"></path>
                <path d="M27.2670937,0.407952381 C27.0574687,0.195 26.80925,0.0885238095 26.5224375,0.0885238095 L1.10276562,0.0885238095 C0.815953125,0.0885238095 0.567734375,0.195 0.358109375,0.407952381 C0.148484375,0.620904762 0.043671875,0.873063492 0.043671875,1.16442857 L0.043671875,5.46825397 C0.043671875,5.75961905 0.148484375,6.01177778 0.358109375,6.22473016 C0.567734375,6.43768254 0.815953125,6.54415873 1.10276562,6.54415873 L26.5220312,6.54415873 C26.8088437,6.54415873 27.0572656,6.43768254 27.2670937,6.22473016 C27.4765156,6.01177778 27.5813281,5.75961905 27.5813281,5.46825397 L27.5813281,1.16442857 C27.5813281,0.872857143 27.4767187,0.620904762 27.2670937,0.407952381 L27.2670937,0.407952381 Z" id="Shape"></path>
            </g>
        </g>
    </g>
</svg>