<?xml version="1.0" encoding="UTF-8"?>
<svg width="12px" height="12px" viewBox="0 0 12 12" version="1.1" xmlns="http://www.w3.org/2000/svg" xmlns:xlink="http://www.w3.org/1999/xlink">
    <!-- Generator: Sketch 43.2 (39069) - http://www.bohemiancoding.com/sketch -->
    <title>Shape</title>
    <desc>Created with Sketch.</desc>
    <defs></defs>
    <g id="Page-1" stroke="none" stroke-width="1" fill="none" fill-rule="evenodd">
        <g id="closeDark" fill="#FFFFFF">
            <path d="M8.138,6 L11.71,2.43 C12.093,2.048 12.094,1.41 11.7,1.017 L10.988,0.3 C10.8023331,0.110214501 10.5485768,0.00241330701 10.2830825,0.000535695313 C10.0175882,-0.00134191638 9.7623326,0.102859476 9.574,0.29 L6,3.864 L2.426,0.29 C2.23770779,0.103167902 1.98266791,-0.000837965591 1.7174196,0.00103923405 C1.45217129,0.00291643369 1.19862901,0.110521609 1.013,0.3 L0.3,1.016 C-0.0897701969,1.40476615 -0.0942287249,2.03475615 0.29,2.429 L3.86,6 L0.29,9.576 C-0.093,9.956 -0.094,10.596 0.3,10.989 L1.013,11.703 C1.19862901,11.8924784 1.45217129,12.0000836 1.7174196,12.0019608 C1.98266791,12.003838 2.23770779,11.8998321 2.426,11.713 L6,8.14 L9.574,11.713 C9.76229221,11.8998321 10.0173321,12.003838 10.2825804,12.0019608 C10.5478287,12.0000836 10.801371,11.8924784 10.987,11.703 L11.701,10.988 C12.0907702,10.5992339 12.0952287,9.96924385 11.711,9.575 L8.14,6 L8.138,6 Z" id="Shape"></path>
        </g>
    </g>
</svg>