<svg width="12" height="12" viewBox="0 0 12 12" xmlns="http://www.w3.org/2000/svg">
    <title>
        closeDark
    </title>
    <path d="M8.138 6L11.71 2.43c.383-.382.384-1.02-.01-1.413L10.988.3A.996.996 0 0 0 9.574.29L6 3.864 2.426.29A.996.996 0 0 0 1.013.3L.3 1.016a1.005 1.005 0 0 0-.01 1.413L3.86 6 .29 9.576c-.383.38-.384 1.02.01 1.413l.713.714a.996.996 0 0 0 1.413.01L6 8.14l3.574 3.573a.996.996 0 0 0 1.413-.01l.714-.715a1.005 1.005 0 0 0 .01-1.413L8.14 6z" fill="#2C3E50" fill-rule="evenodd"/>
</svg>
