<?xml version="1.0" encoding="UTF-8"?>
<svg width="37px" height="42px" viewBox="0 0 37 42" version="1.1" xmlns="http://www.w3.org/2000/svg" xmlns:xlink="http://www.w3.org/1999/xlink">
    <!-- Generator: Sketch 43.2 (39069) - http://www.bohemiancoding.com/sketch -->
    <title>onboardingCWarrow5</title>
    <desc>Created with Sketch.</desc>
    <defs>
        <path d="M11.6995166,16.7791874 C11.5754182,35.1404575 8.44168224,48.6155979 8.44168224,48.6155979 L16.334144,48.6155979 C16.334144,48.6155979 18.4522589,38.3431628 22.519981,16.7791762 L34.8900331,16.7791762 L17.4450166,-3.55271368e-15 L0,16.7791762 L11.6995166,16.7791762 Z" id="path-1"></path>
    </defs>
    <g id="Workouts-/-Create-/-View" stroke="none" stroke-width="1" fill="none" fill-rule="evenodd">
        <g id="onboardingCWarrow5" transform="translate(17.686946, 22.861526) rotate(-230.000000) translate(-17.686946, -22.861526) translate(0.186946, -1.638474)">
            <g id="Combined-Shape">
                <use fill="#F6A623" fill-rule="evenodd" xlink:href="#path-1"></use>
                <path stroke="#FFFFFF" stroke-width="1" d="M1.24111318,16.2791774 L17.4450166,0.693743633 L33.6489187,16.2791762 L22.519981,16.2791762 L22.1054805,16.2791762 L22.0286462,16.6864933 C20.2492716,26.1193921 18.7083388,34.1089934 17.4111142,40.6871441 C16.9571292,42.9892758 16.5660459,44.9504876 16.2385228,46.5747604 C16.1239117,47.1431464 16.0254375,47.6287905 15.9431825,48.0321904 C15.9372764,48.0611553 15.9316048,48.0889578 15.9261678,48.1155979 L9.06333131,48.1155979 C9.06584267,48.1037882 9.06838175,48.091833 9.07094837,48.0797325 C9.18316077,47.5506975 9.30808561,46.9298584 9.44253613,46.2216626 C9.82626383,44.2004405 10.2098331,41.8832288 10.5677409,39.305593 C11.5417467,32.2908467 12.1459988,24.6992351 12.1995051,16.7825667 L12.2029073,16.2791874 L11.6995166,16.2791874 L1.24111318,16.2791774 Z"></path>
            </g>
        </g>
    </g>
</svg>