<?xml version="1.0" encoding="UTF-8"?>
<svg width="72px" height="97px" viewBox="0 0 72 97" version="1.1" xmlns="http://www.w3.org/2000/svg" xmlns:xlink="http://www.w3.org/1999/xlink">
    <!-- Generator: Sketch 43.2 (39069) - http://www.bohemiancoding.com/sketch -->
    <title>onboardingCWarrow3</title>
    <desc>Created with Sketch.</desc>
    <defs>
        <path d="M24.1434334,33.3206328 C23.8873409,69.7830147 17.4204799,96.5423683 17.4204799,96.5423683 L33.7075739,96.5423683 C33.7075739,96.5423683 38.078572,76.1430468 46.4728316,33.3206107 L72,33.3206107 L36,-3.55271368e-15 L0,33.3206107 L24.1434336,33.3206107 Z" id="path-1"></path>
    </defs>
    <g id="Workouts-/-Create-/-View" stroke="none" stroke-width="1" fill="none" fill-rule="evenodd">
        <g id="onboardingCWarrow3">
            <g id="Combined-Shape">
                <use fill="#F6A623" fill-rule="evenodd" xlink:href="#path-1"></use>
                <path stroke="#FFFFFF" stroke-width="1" d="M1.276291,32.8206119 L36,0.681301051 L70.7237077,32.8206107 L46.4728316,32.8206107 L46.0613281,32.8206107 L45.9821697,33.2244288 C42.3099541,51.9578525 39.1297867,67.8251369 36.4525347,80.8895253 C35.5155434,85.4618326 34.708356,89.3571323 34.0323309,92.5833296 C33.7957459,93.7123855 33.5924608,94.6771303 33.4226455,95.4785523 C33.3755076,95.7010136 33.3356106,95.8889196 33.3029714,96.0423683 L18.0498257,96.0423683 C18.0951151,95.8430342 18.1445759,95.6220834 18.1979719,95.3798335 C18.4288132,94.3325405 18.6859164,93.1029831 18.9627066,91.6999985 C19.7530893,87.6937352 20.5433021,83.099881 21.2807376,77.9891191 C23.2878983,64.0785873 24.533158,49.0233703 24.6434211,33.3241445 L24.6469575,32.8206328 L24.1434334,32.8206328 L1.276291,32.8206119 Z"></path>
            </g>
        </g>
    </g>
</svg>