<svg width="92" height="53" viewBox="0 0 92 53" xmlns="http://www.w3.org/2000/svg">
    <title>
        Logo
    </title>
    <path d="M9.68 23.845c2.38 0 3.998-.802 5.604-1.646C8.108 23.56 1.024 18.547 0 10.184l11.89-.178.497-3.146 8-6.86h6.865l-1.618 9.7s5.44-.17 9.413 0c2.438.307 5.294 1.203 6.48 2.615 1.487 1.417 3.098 4.405 3.875 9.238.305 1.485.805 4.29 1 6.25l7.993-17.46c2.583-1.24 8.407-1.883 13.604-.158L70.522 30.5 84.976 6.86l5.114-1.74 1.746 5.065L73.24 51.247c-4.56 1.455-9.303 1.04-12.034 0l-3.42-20.47s-8.91 18.477-10.13 20.47c-4.132 1.455-10.075.882-11.957 0 0-1.712 0-20.19-.934-23.093 0 0-.5-5.426-3.69-5.955h-7.453s-2.99 16.24-2.638 16.76c.238.735.67.83 1.098 1.19 1.73.347 2.115.655 8.562-.943V49.2c-3.703 2.395-8.456 4.62-16.282 3.502-4.353-.792-7.64-3.088-7.828-8.9.34-4.368 1.61-9.957 3.145-19.957z" fill="#22A0D3" fill-rule="evenodd"/>
</svg>
