<svg width="16" height="16" viewBox="0 0 16 16" xmlns="http://www.w3.org/2000/svg">
    <title>
        Page 1
    </title>
    <path d="M11.255 4.235c0 .126.048.25.143.347l2.93 2.928H4.243a.49.49 0 0 0 0 .98h10.083l-2.938 2.938a.49.49 0 0 0 0 .693c.19.193.5.193.692 0l3.775-3.773a.498.498 0 0 0 .106-.16c0-.003.002-.006.003-.008a.485.485 0 0 0 0-.36l-.003-.006a.495.495 0 0 0-.107-.16L12.09 3.888a.49.49 0 0 0-.835.345M8.49 15.51a.49.49 0 0 0-.49-.49H.98V.98H8A.49.49 0 0 0 8 0H.49A.49.49 0 0 0 0 .49v15.02c0 .27.22.49.49.49H8c.27 0 .49-.22.49-.49" fill="#FFF" fill-rule="evenodd"/>
</svg>
