<?xml version="1.0" encoding="UTF-8"?>
<svg width="29px" height="31px" viewBox="0 0 29 31" version="1.1" xmlns="http://www.w3.org/2000/svg" xmlns:xlink="http://www.w3.org/1999/xlink">
    <!-- Generator: Sketch 41.2 (35397) - http://www.bohemiancoding.com/sketch -->
    <title>ymcaLogoWhite</title>
    <desc>Created with Sketch.</desc>
    <defs></defs>
    <g id="YMCA" stroke="none" stroke-width="1" fill="none" fill-rule="evenodd">
        <g id="Workouts-Large" transform="translate(-1000.000000, -21.000000)" fill="#FFFFFF">
            <g id="ymcaLogoWhite" transform="translate(1000.000000, 21.000000)">
                <path d="M0.0878842711,0.683074245 C-0.13230144,0.305822757 0.0516157254,0 0.484503233,0 L7.85570787,0 C8.29494019,0 8.82578239,0.302440668 9.0519563,0.693827046 L18.4190943,16.9033459 C18.58553,17.1913572 18.7204528,17.6838966 18.7204528,18.0256605 L18.7204528,30.1914657 C18.7204528,30.6380069 18.3621119,31 17.9184598,31 L10.6613346,31 C10.2184062,31 9.85934166,30.6368972 9.85934166,30.1914657 L9.85934166,18.0256605 C9.85934166,17.6938346 9.72326393,17.1916901 9.55496961,16.9033459 L0.0878842711,0.683074245 Z" id="Rectangle-5"></path>
                <path d="M19.4015671,15.0387994 C19.6787655,15.5173151 20.1312268,15.5120636 20.4053733,15.0387994 L28.715045,0.693655068 C28.9369595,0.310559952 28.7652056,0 28.3250679,0 L11.6804934,-1.77635684e-15 C11.1333338,0 10.9175291,0.39316514 11.1916853,0.866429399 L19.4015671,15.0387994 Z M19.7855359,8.77975212 C19.8940359,8.96636634 20.0702117,8.96590259 20.1784334,8.77975212 L23.0837628,3.78233938 C23.1922541,3.59572516 23.1037583,3.44444444 22.8873062,3.44444444 L17.0764146,3.44444444 C16.8594233,3.44444444 16.7717434,3.59618891 16.8799737,3.78233938 L19.7855359,8.77975212 Z" id="Combined-Shape" fill-opacity="0.8"></path>
            </g>
        </g>
    </g>
</svg>