<svg width="75" height="44" viewBox="0 0 75 44" xmlns="http://www.w3.org/2000/svg">
    <title>
        Logo TW Mobile
    </title>
    <path class="logoAnimated" d="M7.905 19.474c1.945 0 3.266-.656 4.577-1.345C6.622 19.24.837 15.146 0 8.316l9.71-.146.406-2.57L16.65 0h5.606l-1.32 7.922s4.442-.14 7.686 0c1.99.25 4.323.983 5.293 2.135 1.213 1.157 2.53 3.598 3.164 7.545.247 1.213.655 3.504.815 5.105l6.527-14.26c2.11-1.013 6.865-1.538 11.11-.13l2.06 16.592L69.4 5.6l4.176-1.423L75 8.317 59.814 41.852c-3.724 1.19-7.598.85-9.828 0l-2.793-16.718s-7.278 15.09-8.274 16.718c-3.376 1.19-8.23.72-9.766 0 0-1.398 0-16.488-.762-18.86 0 0-.41-4.43-3.015-4.863H19.29s-2.44 13.26-2.153 13.687c.194.6.546.677.897.972 1.413.282 1.727.534 6.992-.77v8.16C22 42.134 18.12 43.952 11.73 43.04c-3.556-.647-6.24-2.523-6.394-7.27.278-3.566 1.314-8.13 2.568-16.297z" fill="#ffffff" fill-rule="evenodd"/>
</svg>
