<svg width="20" height="27" viewBox="0 0 20 27" xmlns="http://www.w3.org/2000/svg">
    <title>
        grid
    </title>
    <g stroke="#369AD8" fill="none" fill-rule="evenodd">
        <path d="M0 .993C0 .445.454 0 1.008 0H15.23c.28 0 .65.162.84.382l3.595 4.103c.185.21.335.6.335.886v20.62c0 .558-.455 1.01-.992 1.01H.992A.993.993 0 0 1 0 26.007V.993z" stroke-width=".5" fill="#FFF"/>
        <path d="M16.848 9.405H3.132c-.42 0-.763.33-.763.734v9.288a.75.75 0 0 0 .762.737h13.716c.42 0 .76-.33.76-.737v-9.29c.002-.404-.34-.733-.76-.733M2.5 18.5h15m-15-2h15m-15-2h15m-15-2h15m-3-2.955v10.91m-3-10.91v10.91m-6-10.91v10.91m3-10.91v10.91"/>
        <path d="M15.4.5v4a.5.5 0 0 0 .51.5h3.64" stroke-width=".5" stroke-linecap="square"/>
    </g>
</svg>
