<svg width="25" height="25" viewBox="0 0 25 25" xmlns="http://www.w3.org/2000/svg">
    <title>
        FcaebookSocialIcon
    </title>
    <path d="M23.55 1.45C22.637.54 21.54.086 20.26.086H4.74C3.46.085 2.363.54 1.45 1.45.54 2.363.086 3.46.086 4.74v15.52c0 1.282.455 2.378 1.366 3.29.912.91 2.008 1.365 3.29 1.365h15.52c1.282 0 2.378-.455 3.29-1.366.91-.912 1.365-2.008 1.365-3.29V4.74c0-1.282-.456-2.378-1.366-3.29zm-2.337 11.406h-2.83V23.12H14.15V12.856h-2.12v-3.54h2.12V7.197c0-1.52.355-2.668 1.066-3.444.71-.776 1.885-1.164 3.524-1.164h2.83v3.54h-1.78c-.603 0-.988.106-1.155.316-.167.21-.25.58-.25 1.107v1.762h3.2l-.372 3.54z" fill="#FFF" fill-rule="evenodd"/>
</svg>
