<svg width="25" height="25" viewBox="0 0 25 25" xmlns="http://www.w3.org/2000/svg">
    <title>
        InstagramSocialIcon
    </title>
    <path d="M23.977 1.023C23.352.398 22.603.085 21.73.085H3.27c-.873 0-1.622.313-2.247.938C.397 1.648.085 2.397.085 3.27v18.46c0 .873.312 1.622.938 2.247.625.625 1.374.938 2.247.938h18.46c.873 0 1.622-.313 2.247-.938.625-.625.938-1.374.938-2.247V3.27c0-.873-.313-1.622-.938-2.247zM9 9.033c.976-.943 2.148-1.415 3.516-1.415 1.38 0 2.557.472 3.532 1.415.976.943 1.463 2.082 1.463 3.42 0 1.335-.486 2.475-1.462 3.417-.975.943-2.152 1.415-3.532 1.415-1.368 0-2.54-.472-3.516-1.415-.975-.943-1.463-2.082-1.463-3.418 0-1.337.488-2.476 1.463-3.42zm13.102 12.035c0 .28-.097.514-.29.703a.963.963 0 0 1-.696.284H3.836a.954.954 0 0 1-.704-.283.954.954 0 0 1-.283-.702V10.592h2.28a6.96 6.96 0 0 0-.325 2.118c0 2.07.755 3.834 2.263 5.295 1.51 1.46 3.325 2.19 5.448 2.19a7.77 7.77 0 0 0 3.88-1.002 7.546 7.546 0 0 0 2.813-2.724 7.162 7.162 0 0 0 1.034-3.76 6.96 6.96 0 0 0-.324-2.118h2.183v10.476zm0-14.436c0 .312-.107.577-.323.792-.217.216-.48.323-.793.323h-2.813c-.312 0-.577-.107-.792-.323a1.077 1.077 0 0 1-.323-.792V3.965c0-.302.106-.563.322-.784.215-.22.48-.33.792-.33h2.813c.312 0 .576.11.792.33.215.222.322.483.322.785v2.667z" fill="#FFF" fill-rule="evenodd"/>
</svg>
