<svg width="25" height="25" viewBox="0 0 25 25" xmlns="http://www.w3.org/2000/svg">
    <title>
        TWSocialIcon
    </title>
    <path d="M23.464 1.366C22.554.456 21.457 0 20.174 0H4.656c-1.283 0-2.38.455-3.29 1.366C.456 2.276 0 3.373 0 4.656v15.518c0 1.283.455 2.38 1.366 3.29.91.91 2.007 1.366 3.29 1.366h15.518c1.283 0 2.38-.455 3.29-1.366.91-.91 1.366-2.007 1.366-3.29V4.656c0-1.283-.456-2.38-1.366-3.29zM5.01 11.95c.493 0 .83-.168 1.162-.343-1.49.283-2.96-.757-3.172-2.493l2.467-.037.104-.653L7.23 7h1.426L8.32 9.013s1.13-.035 1.954 0c.506.064 1.1.25 1.345.543.307.294.642.914.803 1.917.063.31.167.89.208 1.298l1.66-3.624c.536-.257 1.744-.39 2.823-.032l.524 4.216 3-4.906 1.06-.362.363 1.052-3.86 8.522c-.945.302-1.93.216-2.497 0l-.71-4.25s-1.85 3.837-2.102 4.25c-.857.302-2.09.183-2.48 0 0-.355 0-4.19-.194-4.793 0 0-.104-1.126-.767-1.236H7.902s-.62 3.37-.548 3.48c.05.152.14.17.228.246.36.072.44.136 1.777-.196v2.074c-.768.498-1.755.96-3.38.728-.902-.164-1.584-.64-1.624-1.847.07-.906.334-2.066.653-4.14z" fill="#FFF" fill-rule="evenodd"/>
</svg>
