<?xml version="1.0" encoding="UTF-8" standalone="no"?>
<svg width="19px" height="26px" viewBox="0 0 19 26" version="1.1" xmlns="http://www.w3.org/2000/svg" xmlns:xlink="http://www.w3.org/1999/xlink" xmlns:sketch="http://www.bohemiancoding.com/sketch/ns">
    <!-- Generator: Sketch 3.4.2 (15857) - http://www.bohemiancoding.com/sketch -->
    <title>Delete Icon</title>
    <desc>Created with Sketch.</desc>
    <defs></defs>
    <g id="Page-1" stroke="none" stroke-width="1" fill="none" fill-rule="evenodd" sketch:type="MSPage">
        <g id="Delete-Icon" sketch:type="MSLayerGroup" fill="#FFFFFF">
            <rect id="Rectangle-2066" sketch:type="MSShapeGroup" x="0" y="2.36363636" width="19" height="2.36363636" rx="0.600000024"></rect>
            <rect id="Rectangle-2066-Copy" sketch:type="MSShapeGroup" x="7.125" y="0" width="4.75" height="1.77272727" rx="0.600000024"></rect>
            <path d="M1.78125,5.91484404 C1.78125,5.58531659 2.04919672,5.31818182 2.3864183,5.31818182 L16.6135817,5.31818182 C16.9478069,5.31818182 17.21875,5.57967642 17.21875,5.91484404 L17.2187498,23.6073283 C17.2187497,24.9287644 16.1454712,26 14.8235784,26 L4.1764213,26 C2.85360472,26 1.78125,24.9171749 1.78125,23.6073283 L1.78125,5.91484404 Z M5.34062499,9.75 L5.34062499,21.5681818 L5.94062501,21.5681818 L5.94062501,9.75 L5.34062499,9.75 Z M9.19999999,9.75 L9.19999999,21.5681818 L9.80000001,21.5681818 L9.80000001,9.75 L9.19999999,9.75 Z M13.059375,9.75 L13.059375,21.5681818 L13.659375,21.5681818 L13.659375,9.75 L13.059375,9.75 Z" id="Rectangle-2066" sketch:type="MSShapeGroup"></path>
        </g>
    </g>
</svg>