<?xml version="1.0" encoding="UTF-8" standalone="no"?>
<svg width="14px" height="20px" viewBox="0 0 14 20" version="1.1" xmlns="http://www.w3.org/2000/svg" xmlns:xlink="http://www.w3.org/1999/xlink" xmlns:sketch="http://www.bohemiancoding.com/sketch/ns">
    <!-- Generator: Sketch 3.4.2 (15857) - http://www.bohemiancoding.com/sketch -->
    <title>Delete Icon</title>
    <desc>Created with Sketch.</desc>
    <defs></defs>
    <g id="Page-1" stroke="none" stroke-width="1" fill="none" fill-rule="evenodd" sketch:type="MSPage">
        <g id="My-Workout---Hover" sketch:type="MSArtboardGroup" transform="translate(-774.000000, -180.000000)" stroke-width="0.5" stroke="#FFFFFF">
            <g id="Delete-Button-Active" sketch:type="MSLayerGroup" transform="translate(756.000000, 175.000000)">
                <g id="Delete-Icon" transform="translate(18.000000, 5.000000)" sketch:type="MSShapeGroup">
                    <g id="Rectangle-2066-+-Rectangle-2066-Copy-+-Rectangle-2066">
                        <rect id="Rectangle-2066" x="0" y="1.89090909" width="14" height="1.89090909" rx="0.459000017"></rect>
                        <rect id="Rectangle-2066-Copy" x="5.25" y="0" width="3.5" height="1.41818182" rx="0.459000017"></rect>
                        <path d="M1.3125,3.91433419 C1.3125,3.66039988 1.50993443,3.45454545 1.77250187,3.45454545 L12.2274981,3.45454545 C12.4815502,3.45454545 12.6875,3.66374113 12.6875,3.91433419 L12.6874998,18.16613 C12.6874998,19.1789485 11.8694379,20 10.8599093,20 L3.14009051,20 C2.13074014,20 1.3125,19.1795083 1.3125,18.16613 L1.3125,3.91433419 Z" id="Rectangle-2066"></path>
                    </g>
                    <g id="Line-+-Line-+-Line" transform="translate(3.500000, 6.763636)" stroke-linecap="square">
                        <path d="M6.34375,0.236363636 L6.34375,9.69090909" id="Line"></path>
                        <path d="M3.5,0.236363636 L3.5,9.69090909" id="Line"></path>
                        <path d="M0.65625,0.236363636 L0.65625,9.69090909" id="Line"></path>
                    </g>
                </g>
            </g>
        </g>
    </g>
</svg>