<?xml version="1.0" encoding="UTF-8"?>
<svg width="66px" height="38px" viewBox="0 0 66 38" version="1.1" xmlns="http://www.w3.org/2000/svg" xmlns:xlink="http://www.w3.org/1999/xlink">
    <!-- Generator: Sketch 41.2 (35397) - http://www.bohemiancoding.com/sketch -->
    <title>Logo TW Mobile</title>
    <desc>Created with Sketch.</desc>
    <defs></defs>
    <g id="YMCA" stroke="none" stroke-width="1" fill="none" fill-rule="evenodd">
        <g id="new-client-invitation" transform="translate(-432.000000, -876.000000)" fill="#2C3E50">
            <g id="Group-3" transform="translate(273.000000, 876.000000)">
                <path d="M165.940039,17.0967282 C167.6478,17.0967282 168.806965,16.5210591 169.958482,15.9161481 C164.813097,16.8922544 159.735253,13.2987982 159,7.30253174 L167.52388,7.17452215 L167.880913,4.91899126 L173.61746,4.39004675e-17 L178.538822,0 L177.379383,6.95508189 C177.379383,6.95508189 181.279972,6.83194296 184.127719,6.95508189 C185.87603,7.17452215 187.923462,7.81758497 188.774676,8.82963553 C189.840149,9.84548083 190.995084,11.9881526 191.552732,15.4533306 C191.771031,16.5180634 192.129882,18.5295323 192.269961,19.9352243 L198.000436,7.41484633 C199.852434,6.52623077 204.02759,6.0659135 207.754074,7.30253174 L209.563475,21.8680221 L219.926531,4.91899127 L223.592699,3.66993921 L224.844703,7.30253174 L211.512324,36.7431918 C208.243063,37.7865942 204.841912,37.4884754 202.883785,36.7431918 L200.432504,22.0658212 C200.432504,22.0658212 194.042546,35.3144381 193.167806,36.7431918 C190.205875,37.7865942 185.945083,37.3757097 184.59583,36.7431918 C184.59583,35.5159023 184.59583,22.2678756 183.926893,20.1859339 C183.926893,20.1859339 183.567851,16.2957361 181.279972,15.9161481 L175.936959,15.9161481 C175.936959,15.9161481 173.79362,27.5603039 174.045737,27.9339198 C174.216643,28.4603725 174.52537,28.5282659 174.833118,28.7875885 C176.074389,29.0353477 176.349346,29.2567217 180.972224,28.1103251 L180.972224,35.2744061 C178.316624,36.9923206 174.909174,38.5888745 169.298155,37.7865942 C166.17731,37.2186331 163.821138,35.5720754 163.685177,31.404433 C163.929594,28.2734897 164.839428,24.2660463 165.940039,17.0967282 Z" id="Logo-TW-Mobile"></path>
            </g>
        </g>
    </g>
</svg>